<mxfile host="Electron" modified="2023-05-03T06:19:13.844Z" agent="Mozilla/5.0 (Windows NT 10.0; Win64; x64) AppleWebKit/537.36 (KHTML, like Gecko) draw.io/21.1.2 Chrome/106.0.5249.199 Electron/21.4.3 Safari/537.36" etag="hkWX9NhNOk7jEOhQlPD9" version="21.1.2" type="device">
  <diagram name="Page-1" id="wnwc_P47n_uYWt6d6RBL">
    <mxGraphModel dx="827" dy="399" grid="0" gridSize="10" guides="1" tooltips="1" connect="1" arrows="1" fold="1" page="1" pageScale="1" pageWidth="850" pageHeight="1100" math="0" shadow="0">
      <root>
        <mxCell id="0" />
        <mxCell id="1" parent="0" />
        <mxCell id="RpOqzuZQ1mwoROBrfZql-1" value=":User" style="html=1;whiteSpace=wrap;" parent="1" vertex="1">
          <mxGeometry x="315" y="80" width="110" height="50" as="geometry" />
        </mxCell>
        <mxCell id="RpOqzuZQ1mwoROBrfZql-3" value=":MLmodel" style="html=1;whiteSpace=wrap;" parent="1" vertex="1">
          <mxGeometry x="70" y="160" width="110" height="50" as="geometry" />
        </mxCell>
        <mxCell id="RpOqzuZQ1mwoROBrfZql-4" value=":API" style="html=1;whiteSpace=wrap;" parent="1" vertex="1">
          <mxGeometry x="190" y="300" width="110" height="50" as="geometry" />
        </mxCell>
        <mxCell id="RpOqzuZQ1mwoROBrfZql-5" value=":authentication" style="html=1;whiteSpace=wrap;" parent="1" vertex="1">
          <mxGeometry x="600" y="180" width="110" height="50" as="geometry" />
        </mxCell>
        <mxCell id="RpOqzuZQ1mwoROBrfZql-6" value=":help" style="html=1;whiteSpace=wrap;" parent="1" vertex="1">
          <mxGeometry x="440" y="290" width="110" height="50" as="geometry" />
        </mxCell>
        <mxCell id="RpOqzuZQ1mwoROBrfZql-7" value="" style="endArrow=classic;html=1;rounded=0;exitX=1;exitY=0.75;exitDx=0;exitDy=0;entryX=0;entryY=0.25;entryDx=0;entryDy=0;" parent="1" source="RpOqzuZQ1mwoROBrfZql-1" target="RpOqzuZQ1mwoROBrfZql-5" edge="1">
          <mxGeometry width="50" height="50" relative="1" as="geometry">
            <mxPoint x="400" y="240" as="sourcePoint" />
            <mxPoint x="450" y="190" as="targetPoint" />
          </mxGeometry>
        </mxCell>
        <mxCell id="RpOqzuZQ1mwoROBrfZql-8" value="" style="endArrow=classic;html=1;rounded=0;exitX=0;exitY=0.5;exitDx=0;exitDy=0;entryX=1;entryY=1;entryDx=0;entryDy=0;" parent="1" source="RpOqzuZQ1mwoROBrfZql-5" target="RpOqzuZQ1mwoROBrfZql-1" edge="1">
          <mxGeometry width="50" height="50" relative="1" as="geometry">
            <mxPoint x="400" y="240" as="sourcePoint" />
            <mxPoint x="450" y="190" as="targetPoint" />
          </mxGeometry>
        </mxCell>
        <mxCell id="RpOqzuZQ1mwoROBrfZql-9" value="" style="endArrow=classic;html=1;rounded=0;exitX=0.25;exitY=1;exitDx=0;exitDy=0;entryX=0.75;entryY=0;entryDx=0;entryDy=0;" parent="1" source="RpOqzuZQ1mwoROBrfZql-1" target="RpOqzuZQ1mwoROBrfZql-4" edge="1">
          <mxGeometry width="50" height="50" relative="1" as="geometry">
            <mxPoint x="400" y="240" as="sourcePoint" />
            <mxPoint x="450" y="190" as="targetPoint" />
          </mxGeometry>
        </mxCell>
        <mxCell id="RpOqzuZQ1mwoROBrfZql-10" value="" style="endArrow=classic;html=1;rounded=0;exitX=0.615;exitY=-0.049;exitDx=0;exitDy=0;exitPerimeter=0;entryX=0.131;entryY=1.063;entryDx=0;entryDy=0;entryPerimeter=0;" parent="1" source="RpOqzuZQ1mwoROBrfZql-4" target="RpOqzuZQ1mwoROBrfZql-1" edge="1">
          <mxGeometry width="50" height="50" relative="1" as="geometry">
            <mxPoint x="320" y="270" as="sourcePoint" />
            <mxPoint x="450" y="190" as="targetPoint" />
          </mxGeometry>
        </mxCell>
        <mxCell id="RpOqzuZQ1mwoROBrfZql-11" value="" style="endArrow=classic;html=1;rounded=0;exitX=0.5;exitY=1;exitDx=0;exitDy=0;entryX=0.104;entryY=-0.098;entryDx=0;entryDy=0;entryPerimeter=0;" parent="1" source="RpOqzuZQ1mwoROBrfZql-1" target="RpOqzuZQ1mwoROBrfZql-6" edge="1">
          <mxGeometry width="50" height="50" relative="1" as="geometry">
            <mxPoint x="353" y="140" as="sourcePoint" />
            <mxPoint x="440" y="280" as="targetPoint" />
          </mxGeometry>
        </mxCell>
        <mxCell id="RpOqzuZQ1mwoROBrfZql-12" value="" style="endArrow=classic;html=1;rounded=0;entryX=0.675;entryY=1.085;entryDx=0;entryDy=0;entryPerimeter=0;" parent="1" target="RpOqzuZQ1mwoROBrfZql-1" edge="1">
          <mxGeometry width="50" height="50" relative="1" as="geometry">
            <mxPoint x="470" y="280" as="sourcePoint" />
            <mxPoint x="380" y="140" as="targetPoint" />
          </mxGeometry>
        </mxCell>
        <mxCell id="RpOqzuZQ1mwoROBrfZql-13" value="" style="endArrow=classic;html=1;rounded=0;" parent="1" source="RpOqzuZQ1mwoROBrfZql-3" target="RpOqzuZQ1mwoROBrfZql-1" edge="1">
          <mxGeometry width="50" height="50" relative="1" as="geometry">
            <mxPoint x="330" y="190" as="sourcePoint" />
            <mxPoint x="450" y="190" as="targetPoint" />
          </mxGeometry>
        </mxCell>
        <mxCell id="RpOqzuZQ1mwoROBrfZql-14" value="" style="endArrow=classic;html=1;rounded=0;exitX=0;exitY=0.5;exitDx=0;exitDy=0;entryX=0.75;entryY=0;entryDx=0;entryDy=0;" parent="1" source="RpOqzuZQ1mwoROBrfZql-1" target="RpOqzuZQ1mwoROBrfZql-3" edge="1">
          <mxGeometry width="50" height="50" relative="1" as="geometry">
            <mxPoint x="400" y="240" as="sourcePoint" />
            <mxPoint x="450" y="190" as="targetPoint" />
          </mxGeometry>
        </mxCell>
        <mxCell id="RpOqzuZQ1mwoROBrfZql-15" value="1. register/login" style="text;html=1;align=center;verticalAlign=middle;resizable=0;points=[];autosize=1;strokeColor=none;fillColor=none;rotation=20;" parent="1" vertex="1">
          <mxGeometry x="435" y="115" width="110" height="30" as="geometry" />
        </mxCell>
        <mxCell id="RpOqzuZQ1mwoROBrfZql-16" value="2. log in user" style="text;html=1;align=center;verticalAlign=middle;resizable=0;points=[];autosize=1;strokeColor=none;fillColor=none;rotation=24;" parent="1" vertex="1">
          <mxGeometry x="455" y="160" width="90" height="30" as="geometry" />
        </mxCell>
        <mxCell id="RpOqzuZQ1mwoROBrfZql-17" value="3. get matches" style="text;html=1;align=center;verticalAlign=middle;resizable=0;points=[];autosize=1;strokeColor=none;fillColor=none;rotation=-60;" parent="1" vertex="1">
          <mxGeometry x="220" y="215" width="100" height="30" as="geometry" />
        </mxCell>
        <mxCell id="RpOqzuZQ1mwoROBrfZql-18" value="4. display schedule" style="text;html=1;align=center;verticalAlign=middle;resizable=0;points=[];autosize=1;strokeColor=none;fillColor=none;rotation=-67;" parent="1" vertex="1">
          <mxGeometry x="250" y="215" width="130" height="30" as="geometry" />
        </mxCell>
        <mxCell id="RpOqzuZQ1mwoROBrfZql-19" value="7. ask a query" style="text;html=1;align=center;verticalAlign=middle;resizable=0;points=[];autosize=1;strokeColor=none;fillColor=none;rotation=60;" parent="1" vertex="1">
          <mxGeometry x="400" y="205" width="100" height="30" as="geometry" />
        </mxCell>
        <mxCell id="RpOqzuZQ1mwoROBrfZql-20" value="8. return response" style="text;html=1;align=center;verticalAlign=middle;resizable=0;points=[];autosize=1;strokeColor=none;fillColor=none;rotation=60;" parent="1" vertex="1">
          <mxGeometry x="350" y="210" width="120" height="30" as="geometry" />
        </mxCell>
        <mxCell id="RpOqzuZQ1mwoROBrfZql-21" value="5. match prediction" style="text;html=1;align=center;verticalAlign=middle;resizable=0;points=[];autosize=1;strokeColor=none;fillColor=none;rotation=-19;" parent="1" vertex="1">
          <mxGeometry x="160" y="115" width="120" height="30" as="geometry" />
        </mxCell>
        <mxCell id="RpOqzuZQ1mwoROBrfZql-22" value="6. return prediction" style="text;html=1;align=center;verticalAlign=middle;resizable=0;points=[];autosize=1;strokeColor=none;fillColor=none;rotation=-20;" parent="1" vertex="1">
          <mxGeometry x="180" y="145" width="120" height="30" as="geometry" />
        </mxCell>
        <mxCell id="RpOqzuZQ1mwoROBrfZql-23" value="collaboration diagram" style="text;html=1;align=center;verticalAlign=middle;resizable=0;points=[];autosize=1;strokeColor=none;fillColor=none;" parent="1" vertex="1">
          <mxGeometry x="410" y="25" width="140" height="30" as="geometry" />
        </mxCell>
        <mxCell id="P3RcLhIdT6er7mCPXeR--1" value="Vaibhav patel&lt;br&gt;201070055" style="text;html=1;align=center;verticalAlign=middle;resizable=0;points=[];autosize=1;strokeColor=none;fillColor=none;" vertex="1" parent="1">
          <mxGeometry x="100" y="40" width="100" height="40" as="geometry" />
        </mxCell>
      </root>
    </mxGraphModel>
  </diagram>
</mxfile>
